<svg width="139" height="143" viewBox="0 0 139 143" fill="none" xmlns="http://www.w3.org/2000/svg">
<path d="M119.4 85C114.9 110.6 92.7001 129.2 66.6001 129.2C39.3001 129.2 16.6 108.6 13.4 82.1H27.2001V91.4C27.2001 100.5 34.5001 107.8 43.6001 107.8H83.8C93.5 107.8 102.3 102.8 107.1 94.3C111.9 85.8 111.8 75.7 106.8 67.4L62.3 0H51.7001V85.3H64.8V27.5L95.6001 74.2C98.1001 78.5 98.1001 83.6 95.7001 87.9C93.2001 92.3 88.8 94.8 83.8 94.8H43.6001C41.8001 94.8 40.3 93.3 40.3 91.5V69H0V75.5C0 112.2 29.9001 142.2 66.7001 142.2C99.1001 142.2 126.7 119 132.4 87.2C132.9 84.2 135.5 82.1 138.5 82.1V69.1C129 69 121 75.7 119.4 85Z" fill="#2CA5FF"/>
</svg>
